HIERARCHY
ROOT Hips
{
  OFFSET 0.0273292 -0.436096 0.279869
  CHANNELS 6 Xposition Yposition Zposition Zrotation Xrotation Yrotation
  JOINT LHipJoint
  {
    OFFSET 0 0 0
    CHANNELS 6 Xposition Yposition Zposition Zrotation Xrotation Yrotation
    JOINT LeftUpLeg
    {
      OFFSET 1.36306 -1.79463 0
      CHANNELS 6 Xposition Yposition Zposition Zrotation Xrotation Yrotation
      JOINT LeftLeg
      {
        OFFSET 2.44807 -6.72613 0.000295034
        CHANNELS 6 Xposition Yposition Zposition Zrotation Xrotation Yrotation
        JOINT LeftFoot
        {
          OFFSET 2.5622 -7.03959 3.59965e-05
          CHANNELS 6 Xposition Yposition Zposition Zrotation Xrotation Yrotation
          JOINT LeftToeBase
          {
            OFFSET 0.15764 -0.43311 2.32255
            CHANNELS 6 Xposition Yposition Zposition Zrotation Xrotation Yrotation
            End Site
            {
              OFFSET 0 0 0
            }
          }
        }
      }
    }
  }
  JOINT RHipJoint
  {
    OFFSET 0 0 0
    CHANNELS 6 Xposition Yposition Zposition Zrotation Xrotation Yrotation
    JOINT RightUpLeg
    {
      OFFSET -1.30552 -1.79463 0
      CHANNELS 6 Xposition Yposition Zposition Zrotation Xrotation Yrotation
      JOINT RightLeg
      {
        OFFSET -2.54234 -6.98562 -0.000396375
        CHANNELS 6 Xposition Yposition Zposition Zrotation Xrotation Yrotation
        JOINT RightFoot
        {
          OFFSET -2.56826 -7.05623 -4.47982e-05
          CHANNELS 6 Xposition Yposition Zposition Zrotation Xrotation Yrotation
          JOINT RightToeBase
          {
            OFFSET -0.16473 -0.45259 2.36315
            CHANNELS 6 Xposition Yposition Zposition Zrotation Xrotation Yrotation
            End Site
            {
              OFFSET 0 0 0
            }
          }
        }
      }
    }
  }
  JOINT LowerBack
  {
    OFFSET 0 0 0
    CHANNELS 6 Xposition Yposition Zposition Zrotation Xrotation Yrotation
    JOINT Spine
    {
      OFFSET 0.0282699 2.03559 0
      CHANNELS 6 Xposition Yposition Zposition Zrotation Xrotation Yrotation
      JOINT Spine1
      {
        OFFSET 0.05672 2.04885 -0.04275
        CHANNELS 6 Xposition Yposition Zposition Zrotation Xrotation Yrotation
        JOINT Neck
        {
          OFFSET 0 0 0
          CHANNELS 6 Xposition Yposition Zposition Zrotation Xrotation Yrotation
          JOINT Neck1
          {
            OFFSET -0.05417 1.74624 0.17202
            CHANNELS 6 Xposition Yposition Zposition Zrotation Xrotation Yrotation
            JOINT Head
            {
              OFFSET 0.10407 1.76136 -0.12397
              CHANNELS 6 Xposition Yposition Zposition Zrotation Xrotation Yrotation
              End Site
              {
                OFFSET 0 0 0
              }
            }
          }
        }
        JOINT LeftShoulder
        {
          OFFSET 0 0 0
          CHANNELS 6 Xposition Yposition Zposition Zrotation Xrotation Yrotation
          JOINT LeftArm
          {
            OFFSET 3.36241 1.20089 -0.311211
            CHANNELS 6 Xposition Yposition Zposition Zrotation Xrotation Yrotation
            JOINT LeftForeArm
            {
              OFFSET 4.983 0.000197398 0.000166057
              CHANNELS 6 Xposition Yposition Zposition Zrotation Xrotation Yrotation
              JOINT LeftHand
              {
                OFFSET 3.48356 0 1.87849e-05
                CHANNELS 6 Xposition Yposition Zposition Zrotation Xrotation Yrotation
                JOINT LeftFingerBase
                {
                  OFFSET 0 0 0
                  CHANNELS 6 Xposition Yposition Zposition Zrotation Xrotation Yrotation
                  JOINT LeftHandIndex1
                  {
                    OFFSET 0.71526 0 0
                    CHANNELS 6 Xposition Yposition Zposition Zrotation Xrotation Yrotation
                    End Site
                    {
                      OFFSET 0 0 0
                    }
                  }
                }
                JOINT LThumb
                {
                  OFFSET 0 0 0
                  CHANNELS 6 Xposition Yposition Zposition Zrotation Xrotation Yrotation
                  End Site
                  {
                    OFFSET 0 0 0
                  }
                }
              }
            }
          }
        }
        JOINT RightShoulder
        {
          OFFSET 0 0 0
          CHANNELS 6 Xposition Yposition Zposition Zrotation Xrotation Yrotation
          JOINT RightArm
          {
            OFFSET -3.1366 1.37405 -0.404651
            CHANNELS 6 Xposition Yposition Zposition Zrotation Xrotation Yrotation
            JOINT RightForeArm
            {
              OFFSET -5.2419 -5.8808e-05 -0.000165864
              CHANNELS 6 Xposition Yposition Zposition Zrotation Xrotation Yrotation
              JOINT RightHand
              {
                OFFSET -3.44417 0 -2.00002e-05
                CHANNELS 6 Xposition Yposition Zposition Zrotation Xrotation Yrotation
                JOINT RightFingerBase
                {
                  OFFSET 0 0 0
                  CHANNELS 6 Xposition Yposition Zposition Zrotation Xrotation Yrotation
                  JOINT RightHandIndex1
                  {
                    OFFSET -0.62253 0 0
                    CHANNELS 6 Xposition Yposition Zposition Zrotation Xrotation Yrotation
                    End Site
                    {
                      OFFSET 0 0 0
                    }
                  }
                }
                JOINT RThumb
                {
                  OFFSET 0 0 0
                  CHANNELS 6 Xposition Yposition Zposition Zrotation Xrotation Yrotation
                  End Site
                  {
                    OFFSET 0 0 0
                  }
                }
              }
            }
          }
        }
      }
    }
  }
}
MOTION
Frames:	4
Frame Time:	0.00833333
-0.0741589 2.09601 -0.0580393 0.788545 -2.32954 2.03165 0 0 0 3.72721e-17 7.95139e-16 7.95139e-16 1.36306 -1.79463 2.34536e-08 -12.7122 -3.37876 9.7865 2.4481 -6.72614 -6.20344e-05 -0.451137 9.17616 -1.56173 2.5622 -7.03959 -1.63151e-05 -6.62046 -4.71232 -1.74136 0.15764 -0.43311 2.32255 9.93923e-16 0 -0 0 0 0 3.72721e-17 7.95139e-16 7.95139e-16 -1.30552 -1.79463 -1.52547e-08 17.8604 -12.6079 -8.30178 -2.54245 -6.98559 0.000473882 2.47718 25.8083 -8.454 -2.56826 -7.05622 4.55407e-05 -0.859263 -14.6999 5.11566 -0.16473 -0.45259 2.36315 2.73329e-15 0 1.59028e-15 0 0 0 3.72721e-17 7.95139e-16 7.95139e-16 0.02827 2.03559 3.46244e-08 0.674896 3.3384 0.556136 0.05672 2.04885 -0.04275 -3.10601e-17 -1.98785e-16 -7.95139e-16 0 0 0 1.86361e-16 -3.97569e-16 -7.95139e-16 -0.05417 1.74624 0.17202 0.0766214 1.54577 -0.278599 0.10407 1.76136 -0.12397 -1.98785e-16 -7.95139e-16 -0 0 0 0 1.86361e-16 -3.97569e-16 -7.95139e-16 3.36241 1.20089 -0.31121 -81.9144 6.23215 5.48315 4.983 0.000199777 0.000104559 0.385504 -1.36964 -30.5123 3.48356 6.08391e-06 -2.69605e-05 0.00010132 -3.97569e-16 0.000422201 0 0 0 -1.78906e-15 3.97569e-16 -0 0.71526 -8.88178e-16 0 -1.59028e-15 3.97569e-16 3.18055e-15 0 0 0 -1.78906e-15 3.97569e-16 -0 0 0 0 1.86361e-16 -3.97569e-16 -7.95139e-16 -3.1366 1.37406 -0.404651 82.6925 24.6029 -6.35952 -5.2419 0.000246269 2.84795e-05 -0.524046 -1.1427 27.074 -3.44417 5.28773e-06 -2.4038e-05 -9.0098e-05 0 -0.000401246 0 0 0 -1.59028e-15 -3.18055e-15 -0 -0.62253 4.44089e-16 2.22045e-16 -1.59028e-15 0 -6.36111e-15 0 0 0 -1.59028e-15 -3.18055e-15 -0 
-0.074019 2.09461 -0.0581286 0.791872 -2.3306 2.03156 0 0 0 -1.49089e-16 7.95139e-16 -0 1.36306 -1.79463 2.34536e-08 -12.5936 -3.57535 9.87154 2.4481 -6.72614 -6.20344e-05 -0.454386 9.53963 -1.49623 2.5622 -7.03959 -1.63151e-05 -6.70052 -4.86301 -1.80348 0.15764 -0.43311 2.32255 -9.93923e-16 -3.97569e-16 1.59028e-15 0 0 0 -1.49089e-16 7.95139e-16 -0 -1.30552 -1.79463 -1.52547e-08 17.8089 -12.7735 -8.42785 -2.54245 -6.98559 0.000473882 2.52291 26.0938 -8.54994 -2.56826 -7.05622 4.55407e-05 -0.876145 -14.838 5.16406 -0.16473 -0.45259 2.36315 -3.27995e-15 3.97569e-16 1.59028e-15 0 0 0 -1.49089e-16 7.95139e-16 -0 0.02827 2.03559 3.46244e-08 0.685558 3.38371 0.55795 0.05672 2.04885 -0.04275 -2.42269e-16 -3.97569e-16 -3.97569e-16 0 0 0 1.67725e-16 -3.97569e-16 -0 -0.05417 1.74624 0.17202 0.0779482 1.56858 -0.282946 0.10407 1.76136 -0.12397 -2.36057e-16 0 -0 0 0 0 1.67725e-16 -3.97569e-16 -0 3.36241 1.20089 -0.31121 -82.0706 6.25202 5.48484 4.983 0.000199777 0.000104559 0.38503 -1.37169 -30.5655 3.48356 6.08391e-06 -2.69605e-05 -0.00314362 -0.00120369 0.00384356 0 0 0 -3.37934e-15 0 -0 0.71526 8.88178e-16 0 0 0 -0 0 0 0 -3.37934e-15 0 -0 0 0 0 1.67725e-16 -3.97569e-16 -0 -3.1366 1.37406 -0.404651 82.8394 24.657 -6.36589 -5.2419 0.000246269 2.84795e-05 -0.524029 -1.14443 27.1223 -3.44417 5.28773e-06 -2.4038e-05 -0.00568621 0.00136522 -9.77847e-06 0 0 0 1.59028e-15 3.18055e-15 3.18055e-15 -0.62253 4.44089e-16 -2.22045e-16 0 0 -0 0 0 0 1.59028e-15 3.18055e-15 3.18055e-15 
-0.0736441 2.09152 -0.0583252 0.799654 -2.33295 2.03086 0 0 0 -2.48481e-17 -7.95139e-16 -0 1.36306 -1.79463 2.34536e-08 -12.3307 -4.00744 10.0592 2.4481 -6.72614 -6.20344e-05 -0.464503 10.3393 -1.35184 2.5622 -7.03959 -1.63151e-05 -6.8778 -5.19447 -1.9403 0.15764 -0.43311 2.32255 2.73329e-15 -3.97569e-16 1.59028e-15 0 0 0 -2.48481e-17 -7.95139e-16 -0 -1.30552 -1.79463 -1.52547e-08 17.6928 -13.1373 -8.70606 -2.54245 -6.98559 0.000473882 2.62731 26.7212 -8.76344 -2.56826 -7.05622 4.55407e-05 -0.912432 -15.1418 5.27086 -0.16473 -0.45259 2.36315 4.22417e-15 1.19271e-15 1.59028e-15 0 0 0 -2.48481e-17 -7.95139e-16 -0 0.02827 2.03559 3.46244e-08 0.70952 3.48338 0.561941 0.05672 2.04885 -0.04275 1.61513e-16 1.98785e-16 -7.95139e-16 0 0 0 1.73937e-16 -1.98785e-16 -7.95139e-16 -0.05417 1.74624 0.17202 0.0809442 1.61877 -0.292989 0.10407 1.76136 -0.12397 4.96962e-17 -7.95139e-16 3.97569e-16 0 0 0 1.73937e-16 -1.98785e-16 -7.95139e-16 3.36241 1.20089 -0.31121 -82.4142 6.29575 5.48857 4.983 0.000199777 0.000104559 0.38397 -1.37617 -30.6825 3.48356 6.08391e-06 -2.69605e-05 -0.0110565 -0.00414055 0.0121832 0 0 0 -5.96354e-16 -1.19271e-15 -3.18055e-15 0.71526 -8.88178e-16 0 -7.95139e-16 -3.97569e-16 -3.18055e-15 0 0 0 -5.96354e-16 -1.19271e-15 -3.18055e-15 0 0 0 1.73937e-16 -1.98785e-16 -7.95139e-16 -3.1366 1.37406 -0.404651 83.1628 24.7759 -6.37995 -5.2419 0.000246269 2.84795e-05 -0.52398 -1.14823 27.2287 -3.44417 5.28773e-06 -2.4038e-05 -0.0193219 0.00467524 0.000946362 0 0 0 1.59028e-15 0 -0 -0.62253 0 0 0 3.18055e-15 -0 0 0 0 1.59028e-15 0 -0 
-0.0731018 2.08844 -0.0585218 0.808598 -2.3353 2.02896 0 0 0 -1.11816e-16 0 7.95139e-16 1.36306 -1.79463 2.34536e-08 -12.0649 -4.439 10.2476 2.4481 -6.72614 -6.20344e-05 -0.478723 11.139 -1.20698 2.5622 -7.03959 -1.63151e-05 -7.05667 -5.52585 -2.07733 0.15764 -0.43311 2.32255 -7.65321e-15 0 -1.59028e-15 0 0 0 -1.11816e-16 0 7.95139e-16 -1.30552 -1.79463 -1.52547e-08 17.573 -13.5003 -8.98545 -2.54245 -6.98559 0.000473882 2.73701 27.3477 -8.98037 -2.56826 -7.05622 4.55407e-05 -0.947539 -15.4455 5.37811 -0.16473 -0.45259 2.36315 5.01931e-15 0 -0 0 0 0 -1.11816e-16 0 7.95139e-16 0.02827 2.03559 3.46244e-08 0.734755 3.58306 0.565935 0.05672 2.04885 -0.04275 -8.69683e-17 1.98785e-16 -3.97569e-16 0 0 0 -9.93923e-17 0 -3.97569e-16 -0.05417 1.74624 0.17202 0.0841207 1.66895 -0.304233 0.10407 1.76136 -0.12397 -1.73937e-16 -3.97569e-16 -0 0 0 0 -9.93923e-17 0 -3.97569e-16 3.36241 1.20089 -0.31121 -82.7578 6.33947 5.49229 4.983 0.000199777 0.000104559 0.382888 -1.38064 -30.7996 3.48356 6.08391e-06 -2.69605e-05 -0.0209046 -0.00779927 0.0225546 0 0 0 5.96354e-16 7.95139e-16 3.18055e-15 0.71526 0 -5.55112e-17 9.93923e-16 0 -0 0 0 0 5.96354e-16 7.95139e-16 3.18055e-15 0 0 0 -9.93923e-17 0 -3.97569e-16 -3.1366 1.37406 -0.404651 83.4862 24.8949 -6.39406 -5.2419 0.000246269 2.84795e-05 -0.523914 -1.15201 27.3351 -3.44417 5.28773e-06 -2.4038e-05 -0.0362681 0.00875159 0.00213978 0 0 0 7.06225e-31 6.36111e-15 -6.36111e-15 -0.62253 0 -4.44089e-16 1.59028e-15 0 -3.18055e-15 0 0 0 7.06225e-31 6.36111e-15 -6.36111e-15 
